<?xml version="1.0" encoding="utf-8"?>
<svg width="16px" height="16px" viewbox="0 0 16 16" version="1.1" xmlns:xlink="http://www.w3.org/1999/xlink" xmlns="http://www.w3.org/2000/svg">
  <g id="icons8_share">
    <path d="M13.3333 0C11.8594 0 10.6667 1.19271 10.6667 2.66667C10.6667 2.85156 10.6927 3.03385 10.7292 3.20833L4.66667 6.25C4.17708 5.6901 3.46875 5.33333 2.66667 5.33333C1.19271 5.33333 0 6.52604 0 8C0 9.47396 1.19271 10.6667 2.66667 10.6667C3.46875 10.6667 4.17708 10.3099 4.66667 9.75L10.7292 12.7917C10.6927 12.9661 10.6667 13.1484 10.6667 13.3333C10.6667 14.8073 11.8594 16 13.3333 16C14.8073 16 16 14.8073 16 13.3333C16 11.8594 14.8073 10.6667 13.3333 10.6667C12.5313 10.6667 11.8229 11.0234 11.3333 11.5833L5.27083 8.54167C5.30729 8.36719 5.33333 8.1849 5.33333 8C5.33333 7.8151 5.30729 7.63281 5.27083 7.45833L11.3333 4.41667C11.8229 4.97656 12.5313 5.33333 13.3333 5.33333C14.8073 5.33333 16 4.14063 16 2.66667C16 1.19271 14.8073 0 13.3333 0L13.3333 0Z" id="Shape" fill="#6C6C6C" fill-rule="evenodd" stroke="none" />
  </g>
</svg>