<?xml version="1.0" encoding="UTF-8"?>
<svg width="16px" height="15px" viewBox="0 0 16 15" version="1.1" xmlns="http://www.w3.org/2000/svg" xmlns:xlink="http://www.w3.org/1999/xlink">
    <title>形狀</title>
    <g id="Page-1" stroke="none" stroke-width="1" fill="none" fill-rule="evenodd">
        <g id="詳情＿pc" transform="translate(-1622.000000, -953.000000)" fill="#7F7F7F" fill-rule="nonzero">
            <path d="M1629.81028,953 C1625.5036,953 1622,956.154 1622,960.03125 C1622,961.669125 1622.6353,963.256188 1623.79149,964.514125 C1624.02032,965.476813 1623.74258,966.496688 1623.05344,967.199813 C1622.76528,967.493844 1622.96906,968 1623.37828,968 C1624.68747,968 1625.94955,967.476781 1626.88724,966.553937 C1627.81508,966.89175 1628.79675,967.0625 1629.81028,967.0625 C1634.11696,967.0625 1637.68182,963.9085 1637.68182,960.03125 C1637.68182,956.154 1634.11696,953 1629.81028,953 Z M1626.19611,961.4375 C1625.43609,961.4375 1624.81783,960.806687 1624.81783,960.03125 C1624.81783,959.255813 1625.43609,958.625 1626.19611,958.625 C1626.95613,958.625 1627.5744,959.255813 1627.5744,960.03125 C1627.5744,960.806687 1626.95613,961.4375 1626.19611,961.4375 Z M1629.87154,961.4375 C1629.11152,961.4375 1628.49325,960.806687 1628.49325,960.03125 C1628.49325,959.255813 1629.11152,958.625 1629.87154,958.625 C1630.63155,958.625 1631.24982,959.255813 1631.24982,960.03125 C1631.24982,960.806687 1630.63155,961.4375 1629.87154,961.4375 Z M1633.54696,961.4375 C1632.78695,961.4375 1632.16868,960.806687 1632.16868,960.03125 C1632.16868,959.255813 1632.78695,958.625 1633.54696,958.625 C1634.30698,958.625 1634.92525,959.255813 1634.92525,960.03125 C1634.92525,960.806687 1634.30698,961.4375 1633.54696,961.4375 Z" id="形狀"></path>
        </g>
    </g>
</svg>