<?xml version="1.0" encoding="UTF-8"?>
<svg width="16px" height="15px" viewBox="0 0 16 15" version="1.1" xmlns="http://www.w3.org/2000/svg" xmlns:xlink="http://www.w3.org/1999/xlink">
    <title>chat (1)</title>
    <g id="Page-1" stroke="none" stroke-width="1" fill="none" fill-rule="evenodd">
        <g id="詳情＿pc" transform="translate(-523.000000, -590.000000)" fill="#E41229" fill-rule="nonzero">
            <g id="立即諮詢" transform="translate(499.000000, 580.000000)">
                <g id="chat-(1)" transform="translate(24.000000, 10.000000)">
                    <path d="M7.81028054,0 C3.50359996,0 0,3.154 0,7.03125 C0,8.669125 0.635297408,10.2561875 1.79149458,11.514125 C2.02032049,12.4768125 1.74258079,13.4966875 1.05343839,14.1998125 C0.765284979,14.4938437 0.969056729,15 1.3782848,15 C2.68747159,15 3.94955167,14.4767813 4.88724476,13.5539375 C5.81507546,13.89175 6.79675115,14.0625 7.81028054,14.0625 C12.1169611,14.0625 15.6818182,10.9085 15.6818182,7.03125 C15.6818182,3.154 12.1169611,0 7.81028054,0 Z M4.19611151,8.4375 C3.43609464,8.4375 2.8178267,7.8066875 2.8178267,7.03125 C2.8178267,6.2558125 3.43609464,5.625 4.19611151,5.625 C4.95612837,5.625 5.57439631,6.2558125 5.57439631,7.03125 C5.57439631,7.8066875 4.95612837,8.4375 4.19611151,8.4375 Z M7.87153764,8.4375 C7.11152077,8.4375 6.49325284,7.8066875 6.49325284,7.03125 C6.49325284,6.2558125 7.11152077,5.625 7.87153764,5.625 C8.63155451,5.625 9.24982244,6.2558125 9.24982244,7.03125 C9.24982244,7.8066875 8.63155451,8.4375 7.87153764,8.4375 Z M11.5469638,8.4375 C10.7869469,8.4375 10.168679,7.8066875 10.168679,7.03125 C10.168679,6.2558125 10.7869469,5.625 11.5469638,5.625 C12.3069806,5.625 12.9252486,6.2558125 12.9252486,7.03125 C12.9252486,7.8066875 12.3069806,8.4375 11.5469638,8.4375 Z" id="形狀"></path>
                </g>
            </g>
        </g>
    </g>
</svg>