<?xml version="1.0" encoding="UTF-8"?>
<svg width="14px" height="15px" viewBox="0 0 14 15" version="1.1" xmlns="http://www.w3.org/2000/svg" xmlns:xlink="http://www.w3.org/1999/xlink">
    <title>路徑</title>
    <g id="Page-1" stroke="none" stroke-width="1" fill="none" fill-rule="evenodd">
        <g id="詳情＿pc" transform="translate(-841.000000, -590.000000)" fill="#E41229" fill-rule="nonzero">
            <g id="分享" transform="translate(799.000000, 580.000000)">
                <g id="群組-10" transform="translate(42.000000, 5.000000)">
                    <path d="M13.125,17.1875 C13.125,15.634209 11.865791,14.375 10.3125,14.375 C9.65015625,14.375 9.04139648,14.6040723 8.56083984,14.9871582 L5.55832031,13.1105762 C5.64723654,12.7083712 5.64723654,12.2915995 5.55832031,11.8893945 L8.56083984,10.0128125 C9.04139648,10.3959277 9.65015625,10.625 10.3125,10.625 C11.865791,10.625 13.125,9.36579102 13.125,7.8125 C13.125,6.25920898 11.865791,5 10.3125,5 C8.75920898,5 7.5,6.25920898 7.5,7.8125 C7.5,8.02220703 7.52314453,8.22646484 7.56667969,8.42307617 L4.56416016,10.2996582 C4.08360352,9.91657227 3.47484375,9.6875 2.8125,9.6875 C1.25920898,9.6875 0,10.946709 0,12.5 C0,14.053291 1.25920898,15.3125 2.8125,15.3125 C3.47484375,15.3125 4.08360352,15.0834277 4.56416016,14.7003418 L7.56667969,16.5769238 C7.52229941,16.7774162 7.49994039,16.9821545 7.5,17.1875 C7.5,18.740791 8.75920898,20 10.3125,20 C11.865791,20 13.125,18.740791 13.125,17.1875 Z" id="路徑"></path>
                </g>
            </g>
        </g>
    </g>
</svg>